<svg width="1400" height="1000" viewBox="0 0 1400 1000" fill="none" xmlns="http://www.w3.org/2000/svg">
  <rect width="1400" height="1000" fill="#071633"/>
  <g opacity="0.22">
    <circle cx="1170" cy="210" r="280" fill="#1D4ED8"/>
    <circle cx="1000" cy="770" r="320" fill="#0EA5E9"/>
    <circle cx="290" cy="880" r="260" fill="#2563EB"/>
  </g>
  <g opacity="0.18">
    <path d="M-40 180C180 80 320 60 510 130C710 200 860 190 1040 110C1180 50 1290 40 1440 100" stroke="#93C5FD" stroke-width="2"/>
    <path d="M-60 330C170 230 330 220 520 280C730 350 870 340 1060 260C1210 200 1310 200 1450 250" stroke="#BFDBFE" stroke-width="2"/>
    <path d="M-70 500C160 390 320 390 540 450C740 500 900 500 1080 430C1230 370 1320 370 1470 430" stroke="#93C5FD" stroke-width="2"/>
  </g>
  <g opacity="0.35">
    <rect x="920" y="120" width="250" height="140" rx="16" fill="#0B1E4A"/>
    <rect x="960" y="180" width="130" height="8" rx="4" fill="#60A5FA"/>
    <rect x="960" y="200" width="80" height="8" rx="4" fill="#93C5FD"/>
    <rect x="930" y="480" width="280" height="180" rx="18" fill="#0B1E4A"/>
    <rect x="970" y="540" width="180" height="10" rx="5" fill="#60A5FA"/>
    <rect x="970" y="565" width="120" height="10" rx="5" fill="#93C5FD"/>
  </g>
</svg>
